<?xml version="1.0" encoding="UTF-8"?>
<svg width="26px" height="24px" viewBox="0 0 26 24" version="1.1" xmlns="http://www.w3.org/2000/svg" xmlns:xlink="http://www.w3.org/1999/xlink">
    <!-- Generator: Sketch 61 (89581) - https://sketch.com -->
    <title>Calendar</title>
    <desc>Created with Sketch.</desc>
    <g id="Symbols" stroke="none" stroke-width="1" fill="none" fill-rule="evenodd">
        <g id="Calendar" fill-rule="nonzero">
            <g>
                <path d="M11.5337486,19.5555556 L15.3628031,19.5555556 C15.7898352,19.5555556 16.137931,19.3563346 16.137931,19.1111111 C16.137284,18.8658876 15.7898352,18.6666667 15.3628031,18.6666667 L11.5337486,18.6666667 C11.106393,18.6666667 10.7586207,18.8657021 10.7586207,19.1111111 C10.7586207,19.3561491 11.1060695,19.5555556 11.5337486,19.5555556 Z" id="Path" fill="#F04B45"></path>
                <path d="M4.36142806,12.4444444 L8.19029585,12.4444444 C8.61770285,12.4444444 8.96551724,12.2452235 8.96551724,12 C8.96584056,11.754962 8.61802639,11.5555556 8.19029585,11.5555556 L4.36142806,11.5555556 C3.93369752,11.5555556 3.5862069,11.754962 3.5862069,12 C3.5862069,12.2452235 3.93369752,12.4444444 4.36142806,12.4444444 Z" id="Path" fill="#F04B45"></path>
                <path d="M11.5337486,12.4444444 L15.3628031,12.4444444 C15.7898352,12.4444444 16.137931,12.2452235 16.137931,12 C16.137284,11.754962 15.7898352,11.5555556 15.3628031,11.5555556 L11.5337486,11.5555556 C11.106393,11.5555556 10.7586207,11.754962 10.7586207,12 C10.7586207,12.2452235 11.1060695,12.4444444 11.5337486,12.4444444 Z" id="Path" fill="#F04B45"></path>
                <path d="M17.809704,12.4444444 L21.6385719,12.4444444 C22.0663025,12.4444444 22.4137931,12.2452235 22.4137931,12 C22.4137931,11.754962 22.0663025,11.5555556 21.6385719,11.5555556 L17.809704,11.5555556 C17.3826205,11.5555556 17.0344828,11.754962 17.0344828,12 C17.0344828,12.2452235 17.3822969,12.4444444 17.809704,12.4444444 Z" id="Path" fill="#F04B45"></path>
                <path d="M4.36142806,16 L8.19029585,16 C8.61770285,16 8.96551724,15.8005936 8.96551724,15.5555556 C8.96584056,15.310332 8.61802639,15.1111111 8.19029585,15.1111111 L4.36142806,15.1111111 C3.93369752,15.1111111 3.5862069,15.310332 3.5862069,15.5555556 C3.5862069,15.8005936 3.93369752,16 4.36142806,16 Z" id="Path" fill="#F04B45"></path>
                <path d="M11.5337486,16 L15.3628031,16 C15.7898352,16 16.137931,15.8005936 16.137931,15.5555556 C16.137284,15.310332 15.7898352,15.1111111 15.3628031,15.1111111 L11.5337486,15.1111111 C11.106393,15.1111111 10.7586207,15.310332 10.7586207,15.5555556 C10.7586207,15.8005936 11.1060695,16 11.5337486,16 Z" id="Path" fill="#F04B45"></path>
                <path d="M17.809704,16 L21.6385719,16 C22.0663025,16 22.4137931,15.8005936 22.4137931,15.5555556 C22.4137931,15.310332 22.0663025,15.1111111 21.6385719,15.1111111 L17.809704,15.1111111 C17.3826205,15.1111111 17.0344828,15.310332 17.0344828,15.5555556 C17.0344828,15.8005936 17.3822969,16 17.809704,16 Z" id="Path" fill="#F04B45"></path>
                <path d="M4.36142806,19.5555556 L8.19029585,19.5555556 C8.61770285,19.5555556 8.96551724,19.3563346 8.96551724,19.1111111 C8.96584056,18.8658876 8.61802639,18.6666667 8.19029585,18.6666667 L4.36142806,18.6666667 C3.93369752,18.6666667 3.5862069,18.8657021 3.5862069,19.1111111 C3.5862069,19.3561491 3.93369752,19.5555556 4.36142806,19.5555556 Z" id="Path" fill="#F04B45"></path>
                <path d="M17.809704,19.5555556 L21.6385719,19.5555556 C22.0663025,19.5555556 22.4137931,19.3563346 22.4137931,19.1111111 C22.4137931,18.8658876 22.0663025,18.6666667 21.6385719,18.6666667 L17.809704,18.6666667 C17.3826205,18.6666667 17.0344828,18.8657021 17.0344828,19.1111111 C17.0344828,19.3561491 17.3822969,19.5555556 17.809704,19.5555556 Z" id="Path" fill="#F04B45"></path>
                <path d="M23.1194889,3.35403753 L20.5296,3.35403753 L20.5296,1.54587814 C20.5296,1.18353363 20.2193333,0.888888889 19.8374222,0.888888889 C19.4560889,0.888888889 19.1452444,1.18353363 19.1452444,1.54587814 L19.1452444,3.35403753 L13.6921778,3.35403753 L13.6921778,1.54587814 C13.6921778,1.18353363 13.3813333,0.888888889 13,0.888888889 C12.6183778,0.888888889 12.3078222,1.18353363 12.3078222,1.54587814 L12.3078222,3.35403753 L6.85475556,3.35403753 L6.85475556,1.54587814 C6.85475556,1.18353363 6.54448889,0.888888889 6.16257778,0.888888889 C5.78066667,0.888888889 5.47011111,1.18353363 5.47011111,1.54587814 L5.47011111,3.35403753 L2.88022222,3.35403753 C1.2922,3.35403753 0,4.58030782 0,6.08697027 L0,21.2670673 C0,22.7740038 1.2922,24 2.88022222,24 L23.1194889,24 C24.7078,24 26,22.7734556 26,21.2670673 L26,6.08697027 C26,4.58030782 24.7078,3.35403753 23.1194889,3.35403753 Z M24.6156444,21.2670673 C24.6156444,22.0493148 23.9445556,22.6862956 23.1194889,22.6862956 L2.88022222,22.6862956 C2.05573333,22.6862956 1.38435556,22.0493148 1.38435556,21.2670673 L1.38435556,9.20883407 L24.6156444,9.20883407 L24.6156444,21.2670673 Z M24.6156444,7.89540375 L1.38435556,7.89540375 L1.38435556,6.08697027 C1.38435556,5.30472275 2.05544444,4.66801602 2.88022222,4.66801602 L5.47011111,4.66801602 L5.47011111,5.43820367 C5.47011111,5.80054818 5.78066667,6.09491883 6.16257778,6.09491883 C6.5442,6.09491883 6.85475556,5.80054818 6.85475556,5.43820367 L6.85475556,4.66801602 L12.3078222,4.66801602 L12.3078222,5.43820367 C12.3078222,5.80054818 12.6183778,6.09491883 13,6.09491883 C13.3813333,6.09491883 13.6921778,5.80054818 13.6921778,5.43820367 L13.6921778,4.66801602 L19.1449556,4.66801602 L19.1449556,5.43820367 C19.1449556,5.80054818 19.4552222,6.09491883 19.8371333,6.09491883 C20.2190444,6.09491883 20.5293111,5.80054818 20.5293111,5.43820367 L20.5293111,4.66801602 L23.1192,4.66801602 C23.9436889,4.66801602 24.6153556,5.30472275 24.6153556,6.08697027 L24.6153556,7.89540375 L24.6156444,7.89540375 Z" id="Shape" fill="#2BA2DD"></path>
            </g>
        </g>
    </g>
</svg>