<?xml version="1.0" encoding="UTF-8"?>
<svg width="25px" height="24px" viewBox="0 0 25 24" version="1.1" xmlns="http://www.w3.org/2000/svg" xmlns:xlink="http://www.w3.org/1999/xlink">
    <!-- Generator: Sketch 60.1 (88133) - https://sketch.com -->
    <title>Location</title>
    <desc>Created with Sketch.</desc>
    <g id="Page-1" stroke="none" stroke-width="1" fill="none" fill-rule="evenodd">
        <g id="registration---payment-info-empy" transform="translate(-861.000000, -932.000000)">
            <g id="purchase-info" transform="translate(832.000000, 536.000000)">
                <g id="icon-set" transform="translate(28.500000, 396.000000)">
                    <g id="Location" transform="translate(1.000000, 0.000000)">
                        <g>
                            <path d="M22.3696229,16.1212637 C21.7187608,15.641528 20.8853138,15.2138417 19.8915677,14.8503221 C19.2632604,14.6206438 18.5742703,14.4182295 17.8415135,14.2480362 C17.4970184,14.1703752 17.1503754,14.3967488 17.0733137,14.7464987 C17.0349172,14.9186197 17.06499,15.0956978 17.157088,15.2449612 C17.2489176,15.3936737 17.3917635,15.4972217 17.5593122,15.5363276 C18.2410525,15.6941282 18.8803688,15.882222 19.4590023,16.0939997 C20.3389011,16.4156595 21.0652137,16.7857885 21.6186076,17.1936465 C22.1177629,17.5615724 22.7130439,18.1404498 22.7130439,18.8104825 C22.7130439,20.6407485 18.3130125,22.6808645 12.0001343,22.6808645 C5.68698746,22.6808645 1.28695613,20.6412993 1.28695613,18.8104825 C1.28695613,18.1404498 1.88250562,17.5615724 2.38166094,17.1936465 C2.93532327,16.7857885 3.66163588,16.4153841 4.54153474,16.0939997 C5.13090856,15.8778157 5.78499267,15.6866926 6.48499155,15.5258627 C6.83109764,15.4462739 7.04993119,15.0926685 6.97233255,14.7376861 C6.89715046,14.3915163 6.54164662,14.1582579 6.20359576,14.2378467 C5.44882136,14.4116201 4.74372084,14.6181653 4.10896927,14.8511483 C3.11576027,15.2141171 2.28177618,15.6418034 1.63064565,16.1220899 C0.563597105,16.9080633 0,17.8377922 0,18.8110333 C0,21.7205669 5.27106944,24 12.0001343,24 C18.7291991,24 24,21.7205669 24,18.8099317 C24,17.8372414 23.4366714,16.9075125 22.3696229,16.1212637 Z" id="Path" fill="#2BA2DD" fill-rule="nonzero"></path>
                            <path d="M8.57782852,15.8749161 C9.3191924,17.0207759 10.2795471,18.0384295 10.3198734,18.0808095 C10.6774693,18.4587647 11.1573796,18.6666667 11.6712067,18.6666667 C12.181295,18.6666667 12.6585346,18.4611635 13.0166647,18.0861403 C13.1141423,17.9835221 13.9903724,17.0527608 14.69141,15.9730032 C15.252507,15.1115427 15.7297467,14.3241805 16.1501022,13.5674706 C17.6598032,10.8466199 18.3333333,8.64659042 18.3333333,6.43243423 C18.3333333,2.94581126 15.2802815,0 11.6666667,0 C8.05305185,0 5,2.94581126 5,6.43296732 C5,8.52371501 5.58860447,10.5683511 6.90895859,13.0629084 C7.37070865,13.9339645 7.91631615,14.854064 8.57782852,15.8749161 Z" id="Shape" fill="#F0433D" fill-rule="nonzero"></path>
                            <path d="M11.6666667,9.33333333 C13.1371141,9.33333333 14.3333333,8.13680546 14.3333333,6.66654064 C14.3333333,5.19627582 13.1371141,4 11.6666667,4 C10.1962193,4 9,5.19627582 9,6.66654064 C9,8.13680546 10.1962193,9.33333333 11.6666667,9.33333333 Z" id="Shape" fill="#FFFFFF" fill-rule="nonzero"></path>
                        </g>
                    </g>
                </g>
            </g>
        </g>
    </g>
</svg>