<?xml version="1.0" encoding="UTF-8"?>
<svg width="26px" height="24px" viewBox="0 0 26 24" version="1.1" xmlns="http://www.w3.org/2000/svg" xmlns:xlink="http://www.w3.org/1999/xlink">
    <!-- Generator: Sketch 60.1 (88133) - https://sketch.com -->
    <title>Shape</title>
    <desc>Created with Sketch.</desc>
    <g id="Page-1" stroke="none" stroke-width="1" fill="none" fill-rule="evenodd">
        <g id="find-classes---overlay-result-" transform="translate(-954.000000, -793.000000)" fill="#009D56" fill-rule="nonzero">
            <path d="M977.157277,808.252091 C976.186096,807.495103 975.319827,807.142451 974.432243,807.142451 C973.637913,807.142451 972.816273,807.438691 971.923026,808.04819 L971.841428,808.04882 L971.793469,808.139268 C971.434438,808.403048 970.673414,809.067067 970.665087,809.074315 C970.562507,809.163502 970.319046,809.238823 970.132537,809.238823 C970.089906,809.238823 970.061596,809.234726 970.058932,809.234726 C970.058932,809.234726 970.058932,809.234726 970.058599,809.234726 C970.001314,809.218023 968.623476,808.800766 965.78254,806.148471 C963.20971,803.67266 962.644854,802.366682 962.562923,802.15238 C962.527952,801.991024 962.613547,801.682178 962.728783,801.563997 C962.859672,801.430059 963.513121,800.755009 963.744925,800.464127 L963.75958,800.445848 C965.154403,798.656747 965.105777,797.154116 963.597716,795.422056 C962.595229,794.269871 961.346948,793.081444 959.689014,793.005178 C958.436737,792.937736 957.167141,793.52864 955.816281,794.806885 C954.541024,796.013276 954.043776,797.927807 954.543355,799.660812 C954.643937,800.206335 955.687723,805.144406 961.284668,810.441117 C966.886608,815.74161 972.101875,816.72519 972.652744,816.815007 C973.129009,816.937916 973.622592,817 974.120173,817 C975.533647,817 976.877513,816.495446 977.807062,815.615865 C979.14893,814.345184 979.771738,813.146357 979.711122,811.952257 C979.630857,810.383129 978.374916,809.201005 977.157277,808.252091 Z M976.682011,814.552237 C976.048879,815.151651 975.117331,815.495793 974.126834,815.495793 C973.762807,815.495793 973.400446,815.449782 973.053073,815.358388 C973.02443,815.35051 972.993123,815.343891 972.965813,815.339164 C972.914523,815.331286 967.788181,814.466201 962.409385,809.376543 C957.02626,804.283103 956.116694,799.438001 956.107702,799.388208 C956.102706,799.361105 956.097044,799.333687 956.089384,799.308475 C955.722027,798.057333 956.056079,796.708495 956.941332,795.871774 C957.911513,794.952799 958.750472,794.505918 959.506168,794.505918 C959.540472,794.505918 959.574444,794.506863 959.610747,794.508754 C960.649537,794.556026 961.588744,795.480674 962.370751,796.378849 C963.384896,797.543955 963.437851,798.276992 962.560591,799.447141 L962.424706,799.447771 L962.424706,799.620157 C962.240861,799.834774 961.813222,800.284177 961.558437,800.546696 C961.082172,801.038013 960.855363,801.864334 961.019225,802.512281 C961.084836,802.767867 961.558104,804.185722 964.433678,806.995592 C964.449997,807.015446 964.46665,807.035301 964.485967,807.05421 L964.863315,807.411904 C964.886962,807.434594 964.91294,807.454449 964.92493,807.459806 C967.901752,810.186161 969.395492,810.631152 969.665264,810.693236 C970.359345,810.84892 971.237271,810.622012 971.742179,810.182695 C972.068237,809.899691 972.615109,809.434216 972.789628,809.313829 L972.844249,809.275696 L972.844249,809.275065 C973.47172,808.845202 973.962306,808.652331 974.430577,808.652331 C974.94148,808.652331 975.470367,808.887432 976.145464,809.413731 C977.095329,810.154016 978.072172,811.042737 978.123129,812.025687 C978.160764,812.77196 977.689162,813.598596 976.682011,814.552237 Z" id="Shape"></path>
        </g>
    </g>
</svg>