<?xml version="1.0" encoding="UTF-8"?>
<svg width="35px" height="28px" viewBox="0 0 35 28" version="1.1" xmlns="http://www.w3.org/2000/svg" xmlns:xlink="http://www.w3.org/1999/xlink">
    <!-- Generator: Sketch 60.1 (88133) - https://sketch.com -->
    <title>icon/social-media/twitter</title>
    <desc>Created with Sketch.</desc>
    <g id="Page-1" stroke="none" stroke-width="1" fill="none" fill-rule="evenodd">
        <g id="find-classes---result" transform="translate(-1250.000000, -2287.000000)" fill="#00ACEE" fill-rule="nonzero">
            <g id="desktop/footer" transform="translate(0.000000, 2239.000000)">
                <g id="Group" transform="translate(1144.000000, 48.000000)">
                    <g id="Social-media">
                        <g id="icon/social-media/twitter" transform="translate(106.000000, 0.000000)">
                            <path d="M30.9312543,6.94393917 C30.9531379,7.24843457 30.9531379,7.55299693 30.9531379,7.85749233 C30.9531379,17.1450038 23.8438042,27.846397 10.8500109,27.846397 C6.84686548,27.846397 3.12813915,26.6935592 0,24.6925798 C0.568770937,24.7577906 1.11559096,24.7795498 1.70624548,24.7795498 C5.00931856,24.7795498 8.04999074,23.6702974 10.4781248,21.7779803 C7.37186927,21.7127026 4.7687339,19.6898971 3.87184402,16.9057861 C4.30938084,16.9709969 4.74685033,17.0145153 5.20627073,17.0145153 C5.84062505,17.0145153 6.47504671,16.9274784 7.06563389,16.7752976 C3.8281442,16.1227214 1.39994277,13.2951589 1.39994277,9.88029787 L1.39994277,9.79332787 C2.34053247,10.3153487 3.43437453,10.6416033 4.59366531,10.6850548 C2.69053499,9.42348781 1.44370992,7.27019381 1.44370992,4.83409669 C1.44370992,3.52907814 1.79364511,2.33278881 2.40618319,1.28874719 C5.88432487,5.55188367 11.1124792,8.33592772 16.9749205,8.64049007 C16.8655699,8.11846926 16.7999192,7.57475616 16.7999192,7.03097611 C16.7999192,3.15930502 19.9499419,0.0054878715 23.8655531,0.0054878715 C25.8999175,0.0054878715 27.7373971,0.853763321 29.0280567,2.22405958 C30.6248843,1.91956418 32.1561285,1.33226566 33.5124388,0.527508683 C32.9873676,2.15884883 31.8717767,3.52914509 30.4061832,4.39911282 C31.8280769,4.24693207 33.2062034,3.85533277 34.474912,3.31161968 C33.5125734,4.70360822 32.3093808,5.94334907 30.9312543,6.94393917 Z" id="Path"></path>
                        </g>
                    </g>
                </g>
            </g>
        </g>
    </g>
</svg>