<?xml version="1.0" encoding="UTF-8"?>
<svg width="38px" height="28px" viewBox="0 0 38 28" version="1.1" xmlns="http://www.w3.org/2000/svg" xmlns:xlink="http://www.w3.org/1999/xlink">
    <!-- Generator: Sketch 60.1 (88133) - https://sketch.com -->
    <title>icon/social-media/youtube</title>
    <desc>Created with Sketch.</desc>
    <g id="Page-1" stroke="none" stroke-width="1" fill="none" fill-rule="evenodd">
        <g id="find-classes---result" transform="translate(-1310.000000, -2287.000000)" fill="#C4302B" fill-rule="nonzero">
            <g id="desktop/footer" transform="translate(0.000000, 2239.000000)">
                <g id="Group" transform="translate(1144.000000, 48.000000)">
                    <g id="Social-media">
                        <g id="icon/social-media/youtube" transform="translate(166.000000, 0.000000)">
                            <path d="M36.3598138,4.38105208 C35.9327209,2.65657292 34.6743573,1.29842708 33.0766176,0.837520833 C30.1805997,0 18.5679012,0 18.5679012,0 C18.5679012,0 6.95527073,0 4.05918486,0.837520833 C2.4614452,1.2985 1.20308158,2.65657292 0.775988636,4.38105208 C0,7.50677083 0,14.0282917 0,14.0282917 C0,14.0282917 0,20.5498125 0.775988636,23.6755313 C1.20308158,25.4000104 2.4614452,26.7015729 4.05918486,27.1624792 C6.95527073,28 18.5679012,28 18.5679012,28 C18.5679012,28 30.1805317,28 33.0766176,27.1624792 C34.6743573,26.7015729 35.9327209,25.4000104 36.3598138,23.6755312 C37.1358025,20.5498125 37.1358025,14.0282917 37.1358025,14.0282917 C37.1358025,14.0282917 37.1358025,7.50677083 36.3598138,4.38105208 Z M14.7698952,19.9493437 L14.7698952,8.10723958 L24.4758049,14.0284375 L14.7698952,19.9493437 Z" id="Shape"></path>
                        </g>
                    </g>
                </g>
            </g>
        </g>
    </g>
</svg>